<svg width="295" height="145" viewBox="0 0 295 145" fill="none" xmlns="http://www.w3.org/2000/svg">
<g filter="url(#filter0_d_97_1836)">
<g clip-path="url(#clip0_97_1836)">
<rect x="48.3661" y="44.36" width="198.268" height="48.0649" rx="16" fill="black"/>
<g opacity="0.54" filter="url(#filter1_f_97_1836)">
<ellipse cx="56.8776" cy="95.4289" rx="44.5602" ry="35.0473" fill="#0073FF"/>
</g>
<path d="M81.6445 74.6168C81.0317 74.6168 80.4429 74.5387 79.8781 74.3825C79.3254 74.2143 78.8207 73.992 78.3641 73.7156C77.9195 73.4272 77.553 73.1088 77.2646 72.7603C76.9762 72.3998 76.796 72.0153 76.7239 71.6068L79.5897 70.7957C79.7219 71.1441 79.9502 71.4506 80.2747 71.7149C80.6111 71.9673 81.0317 72.0994 81.5364 72.1114C82.029 72.1235 82.4376 72.0093 82.762 71.769C83.0985 71.5287 83.2667 71.2162 83.2667 70.8317C83.2667 70.5313 83.1465 70.267 82.9062 70.0386C82.6779 69.8103 82.3475 69.6361 81.9149 69.5159L80.1305 69.0653C79.5056 68.9091 78.9589 68.6628 78.4902 68.3263C78.0336 67.9899 77.6731 67.5813 77.4088 67.1007C77.1564 66.608 77.0303 66.0493 77.0303 65.4244C77.0303 64.2108 77.4328 63.2675 78.2379 62.5946C79.043 61.9097 80.1785 61.5672 81.6445 61.5672C82.4496 61.5672 83.1525 61.6814 83.7534 61.9097C84.3542 62.126 84.8649 62.4504 85.2854 62.883C85.718 63.3156 86.0605 63.8563 86.3128 64.5052L83.465 65.3523C83.3688 65.0279 83.1586 64.7335 82.8341 64.4691C82.5217 64.2048 82.1131 64.0726 81.6085 64.0726C81.1038 64.0726 80.7072 64.1867 80.4189 64.415C80.1425 64.6434 80.0043 64.9738 80.0043 65.4064C80.0043 65.7068 80.1184 65.9591 80.3468 66.1634C80.5751 66.3557 80.8875 66.4999 81.284 66.596L83.0684 67.0466C84.0898 67.2989 84.8829 67.7736 85.4476 68.4705C86.0244 69.1555 86.3128 69.9365 86.3128 70.8137C86.3128 71.6068 86.1266 72.2857 85.7541 72.8504C85.3936 73.4152 84.8649 73.8538 84.1679 74.1662C83.471 74.4666 82.6298 74.6168 81.6445 74.6168ZM91.4349 74.6168C90.3655 74.6168 89.5664 74.3645 89.0377 73.8598C88.521 73.3431 88.2626 72.6101 88.2626 71.6608V62.5766H91.0744V70.9579C91.0744 71.3184 91.1405 71.5827 91.2727 71.751C91.4049 71.9192 91.6092 72.0033 91.8855 72.0033C91.9937 72.0033 92.1199 71.9793 92.2641 71.9312C92.4082 71.8711 92.5404 71.799 92.6606 71.7149L93.6339 73.7697C93.3455 74.01 92.997 74.2143 92.5885 74.3825C92.192 74.5387 91.8074 74.6168 91.4349 74.6168ZM86.8567 67.7496V65.3884H93.1292V67.7496H86.8567ZM99.852 74.4005L99.7619 72.4539V69.9125C99.7619 69.4318 99.7198 69.0113 99.6357 68.6508C99.5636 68.2903 99.4134 68.0139 99.1851 67.8217C98.9688 67.6174 98.6504 67.5152 98.2298 67.5152C97.8933 67.5152 97.5989 67.5933 97.3466 67.7496C97.0943 67.9058 96.878 68.116 96.6977 68.3804L94.2284 67.5693C94.4447 67.1247 94.7271 66.7222 95.0755 66.3617C95.436 66.0012 95.8746 65.7128 96.3913 65.4965C96.908 65.2802 97.5088 65.1721 98.1937 65.1721C99.131 65.1721 99.9241 65.3463 100.573 65.6948C101.222 66.0432 101.708 66.5299 102.033 67.1548C102.357 67.7796 102.52 68.5186 102.52 69.3717L102.484 74.4005H99.852ZM97.3827 74.6168C96.3252 74.6168 95.5021 74.3825 94.9133 73.9139C94.3245 73.4332 94.0301 72.7483 94.0301 71.8591C94.0301 70.9098 94.3365 70.2009 94.9494 69.7322C95.5622 69.2636 96.4214 69.0293 97.5268 69.0293H99.9962V70.8497H98.5723C97.9835 70.8497 97.5569 70.9339 97.2925 71.1021C97.0282 71.2583 96.896 71.4866 96.896 71.787C96.896 72.0033 96.9921 72.1775 97.1844 72.3097C97.3887 72.4299 97.665 72.49 98.0135 72.49C98.362 72.49 98.6624 72.4179 98.9147 72.2737C99.1791 72.1175 99.3834 71.9132 99.5276 71.6608C99.6838 71.4085 99.7619 71.1381 99.7619 70.8497H100.483C100.483 72.0393 100.224 72.9646 99.7078 73.6255C99.2031 74.2864 98.4281 74.6168 97.3827 74.6168ZM105.992 69.7322C105.992 68.7589 106.185 67.9478 106.569 67.2989C106.966 66.6501 107.458 66.1634 108.047 65.839C108.648 65.5145 109.273 65.3523 109.922 65.3523V68.092C109.369 68.092 108.846 68.1521 108.354 68.2723C107.873 68.3924 107.482 68.5787 107.182 68.831C106.882 69.0713 106.731 69.3838 106.731 69.7683L105.992 69.7322ZM103.92 74.4005V65.3884H106.731V74.4005H103.92ZM120.54 74.4005L120.378 72.7423V65.3884H123.189V74.4005H120.54ZM114.574 70.0026V65.3884H117.385V70.0026H114.574ZM117.385 70.0026C117.385 70.4712 117.44 70.8497 117.548 71.1381C117.656 71.4265 117.812 71.6368 118.016 71.769C118.221 71.9012 118.461 71.9733 118.737 71.9853C119.278 71.9853 119.687 71.8351 119.963 71.5347C120.239 71.2222 120.378 70.7596 120.378 70.1468H121.225C121.225 71.0961 121.08 71.9072 120.792 72.5801C120.504 73.241 120.107 73.7457 119.602 74.0941C119.11 74.4426 118.533 74.6168 117.872 74.6168C117.151 74.6168 116.544 74.4726 116.052 74.1842C115.559 73.8838 115.187 73.4332 114.934 72.8324C114.694 72.2316 114.574 71.4626 114.574 70.5253V70.0026H117.385ZM128.108 74.6168C127.519 74.6168 126.966 74.5327 126.45 74.3645C125.945 74.1963 125.5 73.9559 125.116 73.6435C124.743 73.3191 124.467 72.9285 124.287 72.4719L126.612 71.4986C126.768 71.799 126.984 72.0273 127.261 72.1835C127.537 72.3277 127.819 72.3998 128.108 72.3998C128.396 72.3998 128.625 72.3518 128.793 72.2556C128.961 72.1475 129.045 72.0033 129.045 71.8231C129.045 71.6308 128.961 71.4806 128.793 71.3724C128.625 71.2643 128.378 71.1682 128.054 71.0841L127.261 70.9038C126.432 70.6875 125.789 70.327 125.332 69.8224C124.875 69.3177 124.647 68.7349 124.647 68.074C124.647 67.1487 124.966 66.4338 125.602 65.9291C126.239 65.4244 127.123 65.1721 128.252 65.1721C128.901 65.1721 129.466 65.2622 129.946 65.4424C130.439 65.6107 130.848 65.851 131.172 66.1634C131.508 66.4638 131.749 66.8123 131.893 67.2088L129.658 68.1461C129.574 67.9058 129.4 67.7195 129.135 67.5873C128.871 67.4552 128.588 67.3891 128.288 67.3891C128.024 67.3891 127.819 67.4491 127.675 67.5693C127.531 67.6895 127.459 67.8397 127.459 68.0199C127.459 68.1641 127.543 68.2903 127.711 68.3984C127.892 68.4946 128.15 68.5847 128.486 68.6688L129.442 68.9031C130.006 69.0473 130.481 69.2696 130.866 69.57C131.25 69.8584 131.538 70.2009 131.731 70.5974C131.923 70.9819 132.019 71.3965 132.019 71.8411C132.019 72.4179 131.851 72.9165 131.514 73.3371C131.19 73.7457 130.733 74.0641 130.145 74.2924C129.556 74.5087 128.877 74.6168 128.108 74.6168ZM141.305 74.6168C140.355 74.6168 139.52 74.4186 138.799 74.022C138.078 73.6135 137.508 73.0547 137.087 72.3458C136.678 71.6368 136.474 70.8197 136.474 69.8945C136.474 68.9692 136.672 68.1521 137.069 67.4431C137.478 66.7342 138.042 66.1814 138.763 65.7849C139.496 65.3763 140.325 65.1721 141.251 65.1721C142.2 65.1721 143.035 65.3763 143.756 65.7849C144.489 66.1814 145.054 66.7342 145.45 67.4431C145.859 68.1521 146.063 68.9692 146.063 69.8945C146.063 70.8197 145.859 71.6368 145.45 72.3458C145.054 73.0547 144.495 73.6135 143.774 74.022C143.053 74.4186 142.23 74.6168 141.305 74.6168ZM141.305 72.0213C141.665 72.0213 141.984 71.9312 142.26 71.751C142.548 71.5707 142.771 71.3244 142.927 71.012C143.095 70.6875 143.179 70.315 143.179 69.8945C143.179 69.4739 143.095 69.1074 142.927 68.795C142.771 68.4705 142.548 68.2182 142.26 68.0379C141.972 67.8577 141.641 67.7676 141.269 67.7676C140.896 67.7676 140.566 67.8577 140.277 68.0379C139.989 68.2182 139.761 68.4705 139.592 68.795C139.436 69.1074 139.358 69.4739 139.358 69.8945C139.358 70.315 139.436 70.6875 139.592 71.012C139.761 71.3244 139.989 71.5707 140.277 71.751C140.578 71.9312 140.92 72.0213 141.305 72.0213ZM147.121 74.4005V65.3884H149.77L149.932 67.0466V74.4005H147.121ZM152.924 74.4005V69.7863H155.736V74.4005H152.924ZM152.924 69.7863C152.924 69.3057 152.87 68.9271 152.762 68.6508C152.654 68.3624 152.498 68.1521 152.294 68.0199C152.101 67.8877 151.861 67.8156 151.573 67.8036C151.032 67.7916 150.623 67.9418 150.347 68.2542C150.071 68.5546 149.932 69.0173 149.932 69.6421H149.085C149.085 68.6928 149.229 67.8877 149.518 67.2268C149.806 66.5539 150.197 66.0432 150.689 65.6948C151.194 65.3463 151.777 65.1721 152.438 65.1721C153.159 65.1721 153.766 65.3223 154.258 65.6227C154.751 65.9111 155.117 66.3557 155.358 66.9565C155.61 67.5573 155.736 68.3263 155.736 69.2636V69.7863H152.924ZM167.288 74.6168C165.99 74.6168 164.843 74.3405 163.845 73.7877C162.86 73.2229 162.085 72.4539 161.52 71.4806C160.955 70.4953 160.673 69.3657 160.673 68.092C160.673 66.8183 160.955 65.6948 161.52 64.7215C162.085 63.7361 162.86 62.9671 163.845 62.4143C164.843 61.8496 165.99 61.5672 167.288 61.5672C168.093 61.5672 168.82 61.6874 169.469 61.9277C170.13 62.156 170.707 62.4744 171.199 62.883C171.692 63.2915 172.1 63.7602 172.425 64.2889L170.028 65.7308C169.847 65.4424 169.607 65.1841 169.307 64.9558C169.018 64.7275 168.7 64.5532 168.351 64.4331C168.003 64.3009 167.648 64.2348 167.288 64.2348C166.579 64.2348 165.948 64.397 165.395 64.7215C164.855 65.0459 164.428 65.5025 164.116 66.0913C163.803 66.6681 163.647 67.335 163.647 68.092C163.647 68.849 163.797 69.5219 164.098 70.1107C164.398 70.6875 164.831 71.1441 165.395 71.4806C165.96 71.817 166.615 71.9853 167.36 71.9853C167.925 71.9853 168.423 71.8771 168.856 71.6608C169.289 71.4445 169.631 71.1441 169.883 70.7596C170.136 70.3751 170.262 69.9245 170.262 69.4078L173.02 68.9392C173.02 70.1648 172.773 71.2042 172.281 72.0574C171.788 72.8985 171.115 73.5354 170.262 73.968C169.409 74.4005 168.417 74.6168 167.288 74.6168ZM167.378 69.7142V67.4792H173.02V69.1915L171.398 69.7142H167.378ZM174.155 74.4005V65.3884H176.967V74.4005H174.155ZM175.561 64.2348C175.14 64.2348 174.768 64.0786 174.443 63.7662C174.131 63.4417 173.975 63.0692 173.975 62.6487C173.975 62.2041 174.131 61.8316 174.443 61.5312C174.768 61.2187 175.14 61.0625 175.561 61.0625C175.994 61.0625 176.366 61.2187 176.678 61.5312C176.991 61.8316 177.147 62.2041 177.147 62.6487C177.147 63.0692 176.991 63.4417 176.678 63.7662C176.366 64.0786 175.994 64.2348 175.561 64.2348ZM182.536 74.6168C181.467 74.6168 180.668 74.3645 180.139 73.8598C179.623 73.3431 179.364 72.6101 179.364 71.6608V62.5766H182.176V70.9579C182.176 71.3184 182.242 71.5827 182.374 71.751C182.506 71.9192 182.711 72.0033 182.987 72.0033C183.095 72.0033 183.221 71.9793 183.366 71.9312C183.51 71.8711 183.642 71.799 183.762 71.7149L184.735 73.7697C184.447 74.01 184.099 74.2143 183.69 74.3825C183.294 74.5387 182.909 74.6168 182.536 74.6168ZM177.958 67.7496V65.3884H184.231V67.7496H177.958ZM194.265 74.4005V61.7835H197.167V74.4005H194.265ZM186.118 74.4005V61.7655H189.02V74.4005H186.118ZM188.173 69.2996V66.632H195.815V69.2996H188.173ZM204.839 74.4005L204.677 72.7423V65.3884H207.489V74.4005H204.839ZM198.873 70.0026V65.3884H201.685V70.0026H198.873ZM201.685 70.0026C201.685 70.4712 201.739 70.8497 201.847 71.1381C201.955 71.4265 202.111 71.6368 202.316 71.769C202.52 71.9012 202.76 71.9733 203.037 71.9853C203.577 71.9853 203.986 71.8351 204.262 71.5347C204.539 71.2222 204.677 70.7596 204.677 70.1468H205.524C205.524 71.0961 205.38 71.9072 205.092 72.5801C204.803 73.241 204.407 73.7457 203.902 74.0941C203.409 74.4426 202.832 74.6168 202.172 74.6168C201.451 74.6168 200.844 74.4726 200.351 74.1842C199.858 73.8838 199.486 73.4332 199.234 72.8324C198.993 72.2316 198.873 71.4626 198.873 70.5253V70.0026H201.685ZM209.019 74.4005V61.7835H211.83V72.7243L211.686 74.4005H209.019ZM214.39 74.6168C213.645 74.6168 213.02 74.4306 212.515 74.0581C212.011 73.6736 211.632 73.1268 211.38 72.4179C211.128 71.7089 211.001 70.8678 211.001 69.8945C211.001 68.9091 211.128 68.068 211.38 67.371C211.632 66.6621 212.011 66.1214 212.515 65.7489C213.02 65.3643 213.645 65.1721 214.39 65.1721C215.231 65.1721 215.958 65.3643 216.571 65.7489C217.184 66.1214 217.652 66.6621 217.977 67.371C218.301 68.068 218.463 68.9091 218.463 69.8945C218.463 70.8678 218.301 71.7089 217.977 72.4179C217.652 73.1268 217.184 73.6736 216.571 74.0581C215.958 74.4306 215.231 74.6168 214.39 74.6168ZM213.669 72.0213C214.029 72.0213 214.348 71.9312 214.624 71.751C214.901 71.5707 215.123 71.3244 215.291 71.012C215.459 70.6875 215.543 70.315 215.543 69.8945C215.543 69.4739 215.465 69.1074 215.309 68.795C215.153 68.4705 214.931 68.2182 214.642 68.0379C214.366 67.8577 214.047 67.7676 213.687 67.7676C213.326 67.7676 213.002 67.8577 212.714 68.0379C212.437 68.2182 212.221 68.4705 212.065 68.795C211.909 69.1194 211.83 69.4859 211.83 69.8945C211.83 70.315 211.909 70.6875 212.065 71.012C212.221 71.3244 212.437 71.5707 212.714 71.751C212.99 71.9312 213.308 72.0213 213.669 72.0213Z" fill="white"/>
</g>
<rect x="48.8661" y="44.86" width="197.268" height="47.0649" rx="15.5" stroke="url(#paint0_linear_97_1836)"/>
</g>
<defs>
<filter id="filter0_d_97_1836" x="0.000783071" y="4.96581e-05" width="294.998" height="144.796" filterUnits="userSpaceOnUse" color-interpolation-filters="sRGB">
<feFlood flood-opacity="0" result="BackgroundImageFix"/>
<feColorMatrix in="SourceAlpha" type="matrix" values="0 0 0 0 0 0 0 0 0 0 0 0 0 0 0 0 0 0 127 0" result="hardAlpha"/>
<feOffset dy="4"/>
<feGaussianBlur stdDeviation="24.15"/>
<feComposite in2="hardAlpha" operator="out"/>
<feColorMatrix type="matrix" values="0 0 0 0 0 0 0 0 0 0.45 0 0 0 0 1 0 0 0 0.14 0"/>
<feBlend mode="normal" in2="BackgroundImageFix" result="effect1_dropShadow_97_1836"/>
<feBlend mode="normal" in="SourceGraphic" in2="effect1_dropShadow_97_1836" result="shape"/>
</filter>
<filter id="filter1_f_97_1836" x="-26.9356" y="21.1286" width="167.626" height="148.601" filterUnits="userSpaceOnUse" color-interpolation-filters="sRGB">
<feFlood flood-opacity="0" result="BackgroundImageFix"/>
<feBlend mode="normal" in="SourceGraphic" in2="BackgroundImageFix" result="shape"/>
<feGaussianBlur stdDeviation="19.6" result="effect1_foregroundBlur_97_1836"/>
</filter>
<linearGradient id="paint0_linear_97_1836" x1="147.5" y1="44.36" x2="52.7715" y2="99.934" gradientUnits="userSpaceOnUse">
<stop stop-color="#466B9F"/>
<stop offset="1" stop-color="#0073FF"/>
</linearGradient>
<clipPath id="clip0_97_1836">
<rect x="48.3661" y="44.36" width="198.268" height="48.0649" rx="16" fill="white"/>
</clipPath>
</defs>
</svg>
